Coordinates
version=1
nRows=17
nColumns=36
inDegrees=yes

Units are S.I. units (second, meters, Newtons, ...)
If the header above contains a line with 'inDegrees', this indicates whether rotational values are in degrees (yes) or radians (no).

endheader
time	pelvis_tilt	pelvis_list	pelvis_rotation	pelvis_tx	pelvis_ty	pelvis_tz	hip_flexion_r	hip_adduction_r	hip_rotation_r	knee_angle_r	knee_angle_r_beta	ankle_angle_r	subtalar_angle_r	mtp_angle_r	hip_flexion_l	hip_adduction_l	hip_rotation_l	knee_angle_l	knee_angle_l_beta	ankle_angle_l	subtalar_angle_l	mtp_angle_l	lumbar_extension	lumbar_bending	lumbar_rotation	arm_flex_r	arm_add_r	arm_rot_r	elbow_flex_r	pro_sup_r	arm_flex_l	arm_add_l	arm_rot_l	elbow_flex_l	pro_sup_l
      0.00000000	     13.08445195	     -0.99731638	      0.94769078	     -0.58368181	      0.57395313	     -0.62062449	     78.04738532	     -9.75228535	      3.82140801	     97.97936406	      1.71006250	     14.12560815	      2.07632886	     -4.52013695	     79.61738048	     -7.64936004	      4.52520638	     97.91093982	      1.70886827	      9.54356214	     -4.05589849	     -4.52013695	    -19.44402734	      1.98108026	      1.01688966	     -7.40065128	     -4.86304803	    -10.74201068	    118.78915728	    101.39744687	     -4.70950394	     -2.86638769	     -9.96026018	    112.62716648	     97.90294891
      0.01000000	     13.10276199	     -1.01502563	      0.98049552	     -0.58365140	      0.57400252	     -0.62063065	     78.07261121	     -9.79662559	      3.77960544	     98.02815334	      1.71091404	     13.96261831	      1.96795424	     -5.20468449	     79.61064502	     -7.63320602	      4.54697554	     97.91828731	      1.70899651	      9.54074105	     -4.04896122	     -5.20468449	    -19.44786878	      1.99886401	      1.01916872	     -7.45005902	     -4.84994879	    -10.71596353	    118.70872345	    101.73342747	     -4.70241511	     -2.84395620	     -9.95834166	    112.66289583	     97.59305999
      0.02000000	     13.08705360	     -1.02970626	      0.94982491	     -0.58363144	      0.57397363	     -0.62058891	     78.08187172	     -9.74775303	      3.78165809	     98.01339828	      1.71065651	     13.92591420	      1.86557415	     -5.37898286	     79.63811122	     -7.67534919	      4.54145814	     97.92799262	      1.70916590	      9.48108380	     -4.15112909	     -5.37898286	    -19.43623660	      2.00301430	      1.02789797	     -7.43209144	     -4.84645905	    -10.76779160	    118.77994975	    101.10945548	     -4.77860003	     -2.84517955	     -9.88500629	    112.81873234	     96.64418126
      0.03000000	     13.10152317	     -0.99765771	      0.94805292	     -0.58368633	      0.57400873	     -0.62059526	     78.03997100	     -9.76022372	      3.80026114	     97.98269327	      1.71012061	     14.06718846	      1.96748665	     -5.66568482	     79.60371551	     -7.65858465	      4.51852715	     97.91834137	      1.70899746	      9.57715992	     -4.02334655	     -5.66568482	    -19.44792388	      1.96503153	      1.02721864	     -7.42159610	     -4.83799585	    -10.74289313	    118.71412431	    101.70188474	     -4.74860437	     -2.86017954	     -9.93089374	    112.69186178	     97.30639221
      0.04000000	     13.09664995	     -0.99958222	      0.94043762	     -0.58369753	      0.57403475	     -0.62060121	     78.02340759	     -9.75236964	      3.79428815	     97.95658926	      1.70966501	     14.09395265	      1.95657991	     -5.90747500	     79.60388740	     -7.66107614	      4.51994737	     97.91072462	      1.70886452	      9.56128324	     -4.05754933	     -5.90747500	    -19.41597722	      1.94772974	      1.01612689	     -7.41305040	     -4.84189089	    -10.70088723	    118.64615555	    101.67028329	     -4.75902232	     -2.85182924	     -9.96062443	    112.67419577	     97.36730049
      0.05000000	     13.10693340	     -1.00832034	      0.95668575	     -0.58367985	      0.57412927	     -0.62064532	     78.01733217	     -9.78381573	      3.77592563	     97.96653406	      1.70983858	     14.05543567	      1.98524462	     -6.15955348	     79.59000723	     -7.64730093	      4.53047125	     97.90321651	      1.70873348	      9.55513442	     -4.05962450	     -6.15955348	    -19.37758159	      1.94130052	      1.02024590	     -7.41896033	     -4.84199808	    -10.71770593	    118.58235468	    101.62516889	     -4.75791549	     -2.85238621	     -9.88860459	    112.66408148	     96.83435204
      0.06000000	     13.02243802	     -1.02167893	      0.93138147	     -0.58361832	      0.57398038	     -0.62059930	     78.13761549	     -9.75325204	      3.73754625	     97.95985856	      1.70972207	     13.65942776	      1.36277452	     -6.42812214	     79.68889311	     -7.67764007	      4.53771581	     97.90774449	      1.70881250	      9.64854346	     -4.05189742	     -6.42812214	    -19.27477819	      1.93560428	      1.02157800	     -7.46660249	     -4.89087728	    -10.31503342	    119.11010401	     95.77665237	     -4.86072674	     -2.87285844	     -9.72435348	    113.23046592	     92.51236700
      0.07000000	     13.10933387	     -1.00448579	      0.93901957	     -0.58368253	      0.57414674	     -0.62062222	     78.01802562	     -9.76703936	      3.79633469	     97.96810751	      1.70986604	     14.07576909	      2.04621072	     -6.45239243	     79.58277558	     -7.66677006	      4.51457822	     97.90970343	      1.70884669	      9.56136112	     -4.06890196	     -6.45239243	    -19.33700056	      1.89857754	      1.03705370	     -7.42490271	     -4.82086676	    -10.71999737	    118.55264904	    101.33346260	     -4.76049484	     -2.84587506	     -9.94651172	    112.54806636	     97.47901686
      0.08000000	     13.10604536	     -0.99029622	      0.93200245	     -0.58370139	      0.57412350	     -0.62061178	     78.01194895	     -9.75656603	      3.80994341	     97.95624642	      1.70965902	     14.09135196	      2.00446356	     -6.70631034	     79.57609940	     -7.66478303	      4.50059847	     97.89783944	      1.70863963	      9.56205646	     -4.07086335	     -6.70631034	    -19.33434448	      1.86733549	      1.06962156	     -7.46340113	     -4.81655976	    -10.70727299	    118.55585489	    101.28659844	     -4.72621099	     -2.83322260	     -9.97409016	    112.53381395	     97.69029338
      0.09000000	     13.13378910	     -1.02568061	      0.94395076	     -0.58373549	      0.57416345	     -0.62063581	     77.97857918	     -9.77010420	      3.76035061	     97.95483370	      1.70963437	     14.02111578	      1.94453547	     -6.80606161	     79.55736038	     -7.67066009	      4.54261426	     97.89538998	      1.70859688	      9.55569445	     -4.05986811	     -6.80606161	    -19.37672344	      1.90461360	      1.04140015	     -7.44459174	     -4.80542714	    -10.70568493	    118.55652017	    101.17127162	     -4.75859876	     -2.85339248	    -10.02825208	    112.55710089	     97.72105079
      0.10000000	     13.14265180	     -1.02053963	      0.95293833	     -0.58370819	      0.57414784	     -0.62066429	     78.01086177	     -9.79863891	      3.76855088	     97.99997875	      1.71042230	     14.02367441	      2.07479432	     -6.90985312	     79.55268098	     -7.65707716	      4.54425391	     97.91426703	      1.70892634	      9.54219557	     -4.05257631	     -6.90985312	    -19.35807798	      1.89403462	      1.05471687	     -7.45657163	     -4.82881680	    -10.69444645	    118.59001349	    101.25423473	     -4.73993645	     -2.84865482	     -9.97267551	    112.54555712	     97.73527019
      0.11000000	     13.11999751	     -1.02924728	      0.94894676	     -0.58371334	      0.57409920	     -0.62062481	     78.04001886	     -9.76182345	      3.75832424	     97.98340503	      1.71013303	     13.71300025	      1.59022109	     -7.00478966	     79.58169661	     -7.65940520	      4.54770416	     97.90351438	      1.70873868	      9.50253658	     -4.17346913	     -7.00478966	    -19.33629053	      1.88565255	      1.04729296	     -7.48042977	     -4.86989242	    -10.44825226	    118.91022466	     97.07796314	     -4.78557122	     -2.87514108	     -9.82896975	    113.00502075	     94.10649814
      0.12000000	     13.17209173	     -1.01486603	      0.96794382	     -0.58378743	      0.57420611	     -0.62067393	     77.93445517	     -9.79714911	      3.81716809	     97.97656945	      1.71001373	     14.40225407	      2.57390732	     -7.02460597	     79.50786345	     -7.62991897	      4.55107178	     97.89164921	      1.70853159	      9.57583172	     -4.02495313	     -7.02460597	    -19.38843407	      1.87142772	      1.04853458	     -7.44549073	     -4.86442143	    -10.57035599	    118.70383130	     99.27271840	     -4.72160896	     -2.87083669	     -9.93896975	    112.71766711	     96.00996784
      0.13000000	     13.18157852	     -1.04838240	      0.95008195	     -0.58381814	      0.57417098	     -0.62060293	     77.91701770	     -9.74570086	      3.73298117	     97.94471386	      1.70945774	     13.99000534	      1.83207552	     -7.01440768	     79.52356117	     -7.69112263	      4.57250945	     97.91354909	      1.70891381	      9.70167033	     -3.86142335	     -7.01440768	    -19.41114051	      1.88669928	      1.07954716	     -7.45165987	     -4.87450640	    -10.60822941	    118.62758889	    100.29586880	     -4.73089378	     -2.82898833	     -9.99570500	    112.67312662	     96.79692726
      0.14000000	     13.19101435	     -1.02821738	      0.95339724	     -0.58385184	      0.57417426	     -0.62055793	     77.90969056	     -9.75967349	      3.75398249	     97.95043446	      1.70955759	     14.09133916	      2.01889103	     -7.08857854	     79.50669529	     -7.67956931	      4.54755389	     97.90160165	      1.70870529	      9.54541458	     -4.05073775	     -7.08857854	    -19.41583265	      1.85087020	      1.05481722	     -7.42524135	     -4.80578562	    -10.63646968	    118.52930060	    101.19909023	     -4.72048772	     -2.85759411	    -10.07920925	    112.53419536	     97.82535096
      0.15000000	     13.18005467	     -1.02766420	      0.95601208	     -0.58388344	      0.57415459	     -0.62058068	     77.93516618	     -9.76667318	      3.74015974	     97.94313090	      1.70943011	     13.96660929	      1.80668931	     -7.11240995	     79.52253485	     -7.66639916	      4.54507362	     97.89619553	      1.70861094	      9.54883410	     -4.09085933	     -7.11240995	    -19.41960096	      1.85243136	      1.04318714	     -7.43285555	     -4.87937284	    -10.53767064	    118.68083460	     99.77899543	     -4.75973760	     -2.85518824	    -10.01339185	    112.66893684	     96.64182027
      0.16000000	     13.25298356	     -1.01258454	      0.94987782	     -0.58392755	      0.57427935	     -0.62055783	     77.84556094	     -9.76533036	      3.77613338	     97.95116731	      1.70957038	     14.15639029	      2.09399063	     -7.14158872	     79.43219861	     -7.67924390	      4.52107185	     97.89614492	      1.70861005	      9.57987228	     -4.08553959	     -7.14158872	    -19.50060696	      1.81598718	      1.06266074	     -7.40537933	     -4.86960066	    -10.58388494	    118.71729447	     99.43141035	     -4.74185554	     -2.84378069	    -10.04250410	    112.77340260	     96.30328160
